<svg xmlns="http://www.w3.org/2000/svg" xmlns:xlink="http://www.w3.org/1999/xlink" version="1.1" width="256" height="256" viewBox="0 0 256 256" xml:space="preserve">
<desc>Created with Fabric.js 1.7.22</desc>
<defs>
</defs>
<g transform="translate(128 128) scale(0.72 0.72)" style="">
	<g style="stroke: none; stroke-width: 0; stroke-dasharray: none; stroke-linecap: butt; stroke-linejoin: miter; stroke-miterlimit: 10; fill: none; fill-rule: nonzero; opacity: 1;" transform="translate(-175.05 -175.05000000000004) scale(3.89 3.89)" >
	<path d="M 47.362 89.939 c 15.918 -0.823 29.648 -9.918 36.975 -23.068 c 11.012 -29.129 2.687 -49.263 -20.181 -62.602 C 59.148 1.91 53.634 0.447 47.821 0.087 C 26.739 1.185 12.132 11.25 2.978 28.868 C 1.054 33.876 0 39.315 0 45 c 0 20.193 13.3 37.279 31.618 42.977 C 36.876 89.1 42.124 89.771 47.362 89.939 z" style="stroke: none; stroke-width: 1; stroke-dasharray: none; stroke-linecap: butt; stroke-linejoin: miter; stroke-miterlimit: 10; fill: rgb(90,170,231); fill-rule: nonzero; opacity: 1;" transform=" matrix(1 0 0 1 0 0) " stroke-linecap="round" />
	<path d="M 42.006 13.188 c 3.251 -3.607 5.286 -8.268 5.815 -13.091 C 46.887 0.039 45.948 0 45 0 C 25.833 0 9.475 11.989 2.989 28.872 c -0.164 4.252 -0.102 8.421 1.882 12.097 c 2.332 4.32 6.829 6.944 11.095 9.374 c 2.025 1.154 4.156 2.423 5.219 4.497 c 0.711 1.386 0.862 2.985 1.37 4.458 c 2.039 5.901 9.375 8.86 11.008 14.885 c 1.014 3.741 -0.463 7.635 -1.259 11.428 c -0.17 0.809 -0.297 1.626 -0.405 2.446 C 36.046 89.317 40.443 90 45 90 c 0.792 0 1.58 -0.022 2.362 -0.062 c 0.753 -1.317 1.298 -2.799 1.938 -4.183 c 1.257 -2.718 3.019 -5.201 5.169 -7.286 c 3.014 -2.922 6.769 -5.059 9.473 -8.269 c 1.614 -1.916 2.848 -4.41 2.361 -6.868 c -0.676 -3.406 -4.295 -5.36 -7.668 -6.182 c -3.373 -0.822 -7.037 -1.056 -9.88 -3.05 c -1.933 -1.356 -3.287 -4.428 -5.186 -5.833 c -6.453 -4.772 -18.602 0.407 -25.142 -4.246 c -0.824 -0.586 -1.578 -1.324 -1.97 -2.257 c -0.326 -0.775 -0.385 -1.636 -0.37 -2.477 c 0.08 -4.484 4.277 -8.889 7.763 -11.71 c 0.252 -0.204 0.515 -0.402 0.819 -0.513 c 1.078 -0.394 2.232 0.434 2.874 1.384 s 0.021 5.158 0.88 5.919 c 0.859 0.76 2.459 0.873 2.973 -0.154 c 0.238 -0.475 1.191 -4.107 1.141 -4.636 c -0.228 -2.412 0.098 -4.903 1.15 -7.085 C 35.506 18.727 39.205 16.294 42.006 13.188 z" style="stroke: none; stroke-width: 1; stroke-dasharray: none; stroke-linecap: butt; stroke-linejoin: miter; stroke-miterlimit: 10; fill: rgb(145,220,90); fill-rule: nonzero; opacity: 1;" transform=" matrix(1 0 0 1 0 0) " stroke-linecap="round" />
	<path d="M 90 45 c 0 -18.002 -10.575 -33.528 -25.847 -40.724 c 0.279 0.424 0.568 0.841 0.835 1.273 c 1.313 2.122 2.51 4.396 2.808 6.873 c 0.754 6.256 -4.291 11.959 -4.184 18.26 c 0.089 5.223 4.226 10.094 9.367 11.027 c 1.876 0.34 3.807 0.206 5.701 0.43 c 1.894 0.224 3.869 0.896 5 2.432 c 0.891 1.209 1.127 2.767 1.284 4.261 c 0.632 6.002 0.403 12.089 -0.633 18.035 C 87.937 60.391 90 52.938 90 45 z" style="stroke: none; stroke-width: 1; stroke-dasharray: none; stroke-linecap: butt; stroke-linejoin: miter; stroke-miterlimit: 10; fill: rgb(145,220,90); fill-rule: nonzero; opacity: 1;" transform=" matrix(1 0 0 1 0 0) " stroke-linecap="round" />
</g>
</g>
</svg>